<svg xmlns="http://www.w3.org/2000/svg" viewBox="0 0 512 512">
  <!-- پس‌زمینه -->
  <rect width="512" height="512" rx="80" fill="#4a6fa5"/>
  
  <!-- صفحه مقاله (طرح کاغذ) -->
  <rect x="120" y="80" width="272" height="352" rx="10" fill="#ffffff"/>
  
  <!-- خطوط متن (نمادین) -->
  <rect x="150" y="140" width="212" height="10" rx="5" fill="#b0c4de"/>
  <rect x="150" y="170" width="150" height="10" rx="5" fill="#b0c4de"/>
  <rect x="150" y="200" width="180" height="10" rx="5" fill="#b0c4de"/>
  <rect x="150" y="230" width="170" height="10" rx="5" fill="#b0c4de"/>
  <rect x="150" y="260" width="200" height="10" rx="5" fill="#b0c4de"/>
  <rect x="150" y="290" width="190" height="10" rx="5" fill="#b0c4de"/>
  <rect x="150" y="320" width="160" height="10" rx="5" fill="#b0c4de"/>
  <rect x="150" y="350" width="180" height="10" rx="5" fill="#b0c4de"/>
  
  <!-- نماد هوش مصنوعی (مغز) در گوشه کاغذ -->
  <circle cx="320" cy="110" r="30" fill="#ffd700"/>
  <path d="M320 90 Q335 100 320 110 Q305 120 320 130" stroke="#4a6fa5" stroke-width="5" fill="none"/>
  <path d="M310 90 Q295 100 310 110 Q325 120 310 130" stroke="#4a6fa5" stroke-width="5" fill="none"/>
  
  <!-- عنوان به فارسی (نمادین) -->
  <rect x="150" y="105" width="140" height="15" rx="7.5" fill="#4a6fa5"/>
</svg> 